<mxfile host="app.diagrams.net" agent="Mozilla/5.0 (Macintosh; Intel Mac OS X 10_15_7) AppleWebKit/537.36 (KHTML, like Gecko) Chrome/139.0.0.0 Safari/537.36" version="28.1.1" pages="2">
  <diagram name="第 1 页" id="DgCFYPtM9D_NWzfjKQ5i">
    <mxGraphModel dx="1426" dy="790" grid="1" gridSize="10" guides="1" tooltips="1" connect="1" arrows="1" fold="1" page="1" pageScale="1" pageWidth="827" pageHeight="1169" math="0" shadow="0">
      <root>
        <mxCell id="0" />
        <mxCell id="1" parent="0" />
        <mxCell id="VgcGW3FXhSqASSJ4ygCi-15" value="" style="rounded=0;whiteSpace=wrap;html=1;" vertex="1" parent="1">
          <mxGeometry x="110" y="130" width="800" height="160" as="geometry" />
        </mxCell>
        <mxCell id="VgcGW3FXhSqASSJ4ygCi-10" style="edgeStyle=orthogonalEdgeStyle;rounded=0;orthogonalLoop=1;jettySize=auto;html=1;exitX=1;exitY=0.5;exitDx=0;exitDy=0;entryX=0;entryY=0.5;entryDx=0;entryDy=0;" edge="1" parent="1" source="VgcGW3FXhSqASSJ4ygCi-1" target="VgcGW3FXhSqASSJ4ygCi-3">
          <mxGeometry relative="1" as="geometry" />
        </mxCell>
        <mxCell id="VgcGW3FXhSqASSJ4ygCi-1" value="运营管理平台" style="rounded=1;whiteSpace=wrap;html=1;" vertex="1" parent="1">
          <mxGeometry x="293.5" y="190" width="120" height="60" as="geometry" />
        </mxCell>
        <mxCell id="VgcGW3FXhSqASSJ4ygCi-9" style="edgeStyle=orthogonalEdgeStyle;rounded=0;orthogonalLoop=1;jettySize=auto;html=1;exitX=1;exitY=0.5;exitDx=0;exitDy=0;entryX=0;entryY=0.5;entryDx=0;entryDy=0;" edge="1" parent="1" source="VgcGW3FXhSqASSJ4ygCi-2" target="VgcGW3FXhSqASSJ4ygCi-1">
          <mxGeometry relative="1" as="geometry" />
        </mxCell>
        <mxCell id="VgcGW3FXhSqASSJ4ygCi-2" value="物联网设备" style="rounded=1;whiteSpace=wrap;html=1;" vertex="1" parent="1">
          <mxGeometry x="150" y="190" width="120" height="60" as="geometry" />
        </mxCell>
        <mxCell id="VgcGW3FXhSqASSJ4ygCi-11" style="edgeStyle=orthogonalEdgeStyle;rounded=0;orthogonalLoop=1;jettySize=auto;html=1;exitX=1;exitY=0.5;exitDx=0;exitDy=0;entryX=0;entryY=0.5;entryDx=0;entryDy=0;" edge="1" parent="1" source="VgcGW3FXhSqASSJ4ygCi-3" target="VgcGW3FXhSqASSJ4ygCi-6">
          <mxGeometry relative="1" as="geometry" />
        </mxCell>
        <mxCell id="VgcGW3FXhSqASSJ4ygCi-3" value="算法模型" style="rounded=1;whiteSpace=wrap;html=1;" vertex="1" parent="1">
          <mxGeometry x="430" y="190" width="120" height="60" as="geometry" />
        </mxCell>
        <mxCell id="VgcGW3FXhSqASSJ4ygCi-5" value="" style="shape=curlyBracket;whiteSpace=wrap;html=1;rounded=1;labelPosition=left;verticalLabelPosition=middle;align=right;verticalAlign=middle;" vertex="1" parent="1">
          <mxGeometry x="700" y="160" width="20" height="120" as="geometry" />
        </mxCell>
        <mxCell id="VgcGW3FXhSqASSJ4ygCi-6" value="生产决策" style="rounded=1;whiteSpace=wrap;html=1;" vertex="1" parent="1">
          <mxGeometry x="570" y="190" width="120" height="60" as="geometry" />
        </mxCell>
        <UserObject label="细分个体/栏位营养需要" placeholders="1" name="Variable" id="VgcGW3FXhSqASSJ4ygCi-8">
          <mxCell style="text;html=1;strokeColor=none;fillColor=none;align=center;verticalAlign=middle;whiteSpace=wrap;overflow=hidden;" vertex="1" parent="1">
            <mxGeometry x="730" y="160" width="130" height="30" as="geometry" />
          </mxCell>
        </UserObject>
        <UserObject label="精准环控" placeholders="1" name="Variable" id="VgcGW3FXhSqASSJ4ygCi-12">
          <mxCell style="text;html=1;strokeColor=none;fillColor=none;align=center;verticalAlign=middle;whiteSpace=wrap;overflow=hidden;" vertex="1" parent="1">
            <mxGeometry x="730" y="190" width="130" height="30" as="geometry" />
          </mxCell>
        </UserObject>
        <UserObject label="精准能耗优化" placeholders="1" name="Variable" id="VgcGW3FXhSqASSJ4ygCi-13">
          <mxCell style="text;html=1;strokeColor=none;fillColor=none;align=center;verticalAlign=middle;whiteSpace=wrap;overflow=hidden;" vertex="1" parent="1">
            <mxGeometry x="730" y="230" width="130" height="30" as="geometry" />
          </mxCell>
        </UserObject>
        <UserObject label="疫病预警与防控" placeholders="1" name="Variable" id="VgcGW3FXhSqASSJ4ygCi-14">
          <mxCell style="text;html=1;strokeColor=none;fillColor=none;align=center;verticalAlign=middle;whiteSpace=wrap;overflow=hidden;" vertex="1" parent="1">
            <mxGeometry x="730" y="260" width="130" height="30" as="geometry" />
          </mxCell>
        </UserObject>
        <mxCell id="VgcGW3FXhSqASSJ4ygCi-16" value="物联网数据回流" style="rounded=0;whiteSpace=wrap;html=1;" vertex="1" parent="1">
          <mxGeometry x="330" y="140" width="350" height="30" as="geometry" />
        </mxCell>
      </root>
    </mxGraphModel>
  </diagram>
  <diagram id="EdgpB0OYXXb_8HfRbxB0" name="第 2 页">
    <mxGraphModel dx="976" dy="629" grid="1" gridSize="10" guides="1" tooltips="1" connect="1" arrows="1" fold="1" page="1" pageScale="1" pageWidth="827" pageHeight="1169" math="0" shadow="0">
      <root>
        <mxCell id="0" />
        <mxCell id="1" parent="0" />
        <mxCell id="Mxo4N5T553aBUPuJ1U2a-19" value="" style="rounded=0;whiteSpace=wrap;html=1;" vertex="1" parent="1">
          <mxGeometry y="40" width="670" height="430" as="geometry" />
        </mxCell>
        <mxCell id="Mxo4N5T553aBUPuJ1U2a-14" value="" style="rounded=0;whiteSpace=wrap;html=1;dashed=1;" vertex="1" parent="1">
          <mxGeometry x="243" y="80" width="160" height="350" as="geometry" />
        </mxCell>
        <mxCell id="Mxo4N5T553aBUPuJ1U2a-13" value="" style="rounded=0;whiteSpace=wrap;html=1;dashed=1;" vertex="1" parent="1">
          <mxGeometry x="452" y="80" width="160" height="350" as="geometry" />
        </mxCell>
        <mxCell id="Mxo4N5T553aBUPuJ1U2a-6" value="" style="rounded=0;whiteSpace=wrap;html=1;dashed=1;" vertex="1" parent="1">
          <mxGeometry x="35" y="80" width="160" height="350" as="geometry" />
        </mxCell>
        <mxCell id="Mxo4N5T553aBUPuJ1U2a-1" value="文献数据" style="rounded=1;whiteSpace=wrap;html=1;" vertex="1" parent="1">
          <mxGeometry x="55" y="140" width="120" height="60" as="geometry" />
        </mxCell>
        <mxCell id="Mxo4N5T553aBUPuJ1U2a-2" value="物联网数据" style="rounded=1;whiteSpace=wrap;html=1;" vertex="1" parent="1">
          <mxGeometry x="55" y="210" width="120" height="60" as="geometry" />
        </mxCell>
        <mxCell id="Mxo4N5T553aBUPuJ1U2a-3" value="各来源数据汇总" style="rounded=1;whiteSpace=wrap;html=1;" vertex="1" parent="1">
          <mxGeometry x="55" y="100" width="120" height="30" as="geometry" />
        </mxCell>
        <mxCell id="Mxo4N5T553aBUPuJ1U2a-4" value="用户数据" style="rounded=1;whiteSpace=wrap;html=1;" vertex="1" parent="1">
          <mxGeometry x="55" y="350" width="120" height="60" as="geometry" />
        </mxCell>
        <mxCell id="Mxo4N5T553aBUPuJ1U2a-5" value="互联网数据" style="rounded=1;whiteSpace=wrap;html=1;" vertex="1" parent="1">
          <mxGeometry x="55" y="280" width="120" height="60" as="geometry" />
        </mxCell>
        <mxCell id="Mxo4N5T553aBUPuJ1U2a-7" value="服务器存储" style="rounded=1;whiteSpace=wrap;html=1;" vertex="1" parent="1">
          <mxGeometry x="263" y="150" width="120" height="60" as="geometry" />
        </mxCell>
        <mxCell id="Mxo4N5T553aBUPuJ1U2a-8" value="算法初筛" style="rounded=1;whiteSpace=wrap;html=1;" vertex="1" parent="1">
          <mxGeometry x="263" y="225" width="120" height="60" as="geometry" />
        </mxCell>
        <mxCell id="Mxo4N5T553aBUPuJ1U2a-9" value="人工标注" style="rounded=1;whiteSpace=wrap;html=1;" vertex="1" parent="1">
          <mxGeometry x="472" y="100" width="120" height="30" as="geometry" />
        </mxCell>
        <mxCell id="Mxo4N5T553aBUPuJ1U2a-10" value="场景数据集制作" style="rounded=1;whiteSpace=wrap;html=1;" vertex="1" parent="1">
          <mxGeometry x="472" y="350" width="120" height="60" as="geometry" />
        </mxCell>
        <mxCell id="Mxo4N5T553aBUPuJ1U2a-11" value="prompt构建" style="rounded=1;whiteSpace=wrap;html=1;" vertex="1" parent="1">
          <mxGeometry x="472" y="210" width="120" height="60" as="geometry" />
        </mxCell>
        <mxCell id="Mxo4N5T553aBUPuJ1U2a-12" value="数据合规" style="rounded=1;whiteSpace=wrap;html=1;" vertex="1" parent="1">
          <mxGeometry x="472" y="280" width="120" height="60" as="geometry" />
        </mxCell>
        <mxCell id="Mxo4N5T553aBUPuJ1U2a-15" value="数据存储与初筛" style="rounded=1;whiteSpace=wrap;html=1;" vertex="1" parent="1">
          <mxGeometry x="263" y="100" width="120" height="30" as="geometry" />
        </mxCell>
        <mxCell id="Mxo4N5T553aBUPuJ1U2a-16" value="养殖行业数据集标注" style="rounded=1;whiteSpace=wrap;html=1;" vertex="1" parent="1">
          <mxGeometry x="472" y="140" width="120" height="60" as="geometry" />
        </mxCell>
        <mxCell id="Mxo4N5T553aBUPuJ1U2a-17" value="" style="shape=flexArrow;endArrow=classic;html=1;rounded=0;" edge="1" parent="1">
          <mxGeometry width="50" height="50" relative="1" as="geometry">
            <mxPoint x="199" y="250" as="sourcePoint" />
            <mxPoint x="239" y="250" as="targetPoint" />
          </mxGeometry>
        </mxCell>
        <mxCell id="Mxo4N5T553aBUPuJ1U2a-18" value="" style="shape=flexArrow;endArrow=classic;html=1;rounded=0;" edge="1" parent="1">
          <mxGeometry width="50" height="50" relative="1" as="geometry">
            <mxPoint x="406" y="250" as="sourcePoint" />
            <mxPoint x="446" y="250" as="targetPoint" />
          </mxGeometry>
        </mxCell>
      </root>
    </mxGraphModel>
  </diagram>
</mxfile>
